<mxfile host="app.diagrams.net" modified="2024-07-07T20:40:51.680Z" agent="Mozilla/5.0 (Windows NT 10.0; Win64; x64; rv:127.0) Gecko/20100101 Firefox/127.0" etag="sPgBG2SoDqdw6MulQeUI" version="24.6.4" type="device">
  <diagram id="C5RBs43oDa-KdzZeNtuy" name="Page-1">
    <mxGraphModel dx="1050" dy="537" grid="1" gridSize="10" guides="1" tooltips="1" connect="1" arrows="1" fold="1" page="1" pageScale="1" pageWidth="827" pageHeight="1169" math="0" shadow="0">
      <root>
        <mxCell id="WIyWlLk6GJQsqaUBKTNV-0" />
        <mxCell id="WIyWlLk6GJQsqaUBKTNV-1" parent="WIyWlLk6GJQsqaUBKTNV-0" />
        <mxCell id="uJuetPwyFt0daFba83CH-59" style="edgeStyle=orthogonalEdgeStyle;rounded=0;orthogonalLoop=1;jettySize=auto;html=1;entryX=0.5;entryY=0;entryDx=0;entryDy=0;" edge="1" parent="WIyWlLk6GJQsqaUBKTNV-1" source="uJuetPwyFt0daFba83CH-33" target="uJuetPwyFt0daFba83CH-35">
          <mxGeometry relative="1" as="geometry" />
        </mxCell>
        <mxCell id="uJuetPwyFt0daFba83CH-57" style="edgeStyle=orthogonalEdgeStyle;rounded=0;orthogonalLoop=1;jettySize=auto;html=1;entryX=0.5;entryY=0;entryDx=0;entryDy=0;" edge="1" parent="WIyWlLk6GJQsqaUBKTNV-1" source="uJuetPwyFt0daFba83CH-33" target="uJuetPwyFt0daFba83CH-36">
          <mxGeometry relative="1" as="geometry" />
        </mxCell>
        <mxCell id="uJuetPwyFt0daFba83CH-39" style="edgeStyle=orthogonalEdgeStyle;rounded=0;orthogonalLoop=1;jettySize=auto;html=1;entryX=0.5;entryY=0;entryDx=0;entryDy=0;" edge="1" parent="WIyWlLk6GJQsqaUBKTNV-1" source="uJuetPwyFt0daFba83CH-17" target="uJuetPwyFt0daFba83CH-31">
          <mxGeometry relative="1" as="geometry">
            <Array as="points">
              <mxPoint x="680" y="550" />
              <mxPoint x="680" y="550" />
            </Array>
          </mxGeometry>
        </mxCell>
        <mxCell id="uJuetPwyFt0daFba83CH-61" style="edgeStyle=orthogonalEdgeStyle;rounded=0;orthogonalLoop=1;jettySize=auto;html=1;exitX=0.25;exitY=1;exitDx=0;exitDy=0;entryX=0.5;entryY=0;entryDx=0;entryDy=0;" edge="1" parent="WIyWlLk6GJQsqaUBKTNV-1" source="uJuetPwyFt0daFba83CH-17" target="uJuetPwyFt0daFba83CH-33">
          <mxGeometry relative="1" as="geometry">
            <Array as="points">
              <mxPoint x="640" y="280" />
              <mxPoint x="640" y="310" />
              <mxPoint x="560" y="310" />
            </Array>
          </mxGeometry>
        </mxCell>
        <mxCell id="uJuetPwyFt0daFba83CH-17" value="UnityStaticGameRepresentation" style="rounded=0;whiteSpace=wrap;html=1;" vertex="1" parent="WIyWlLk6GJQsqaUBKTNV-1">
          <mxGeometry x="560" y="230" width="190" height="50" as="geometry" />
        </mxCell>
        <mxCell id="uJuetPwyFt0daFba83CH-24" style="edgeStyle=orthogonalEdgeStyle;rounded=0;orthogonalLoop=1;jettySize=auto;html=1;entryX=0.5;entryY=0;entryDx=0;entryDy=0;" edge="1" parent="WIyWlLk6GJQsqaUBKTNV-1" source="uJuetPwyFt0daFba83CH-18" target="uJuetPwyFt0daFba83CH-19">
          <mxGeometry relative="1" as="geometry" />
        </mxCell>
        <mxCell id="uJuetPwyFt0daFba83CH-45" style="edgeStyle=orthogonalEdgeStyle;rounded=0;orthogonalLoop=1;jettySize=auto;html=1;entryX=0.5;entryY=0;entryDx=0;entryDy=0;" edge="1" parent="WIyWlLk6GJQsqaUBKTNV-1" source="uJuetPwyFt0daFba83CH-18" target="uJuetPwyFt0daFba83CH-42">
          <mxGeometry relative="1" as="geometry">
            <Array as="points">
              <mxPoint x="370" y="210" />
              <mxPoint x="290" y="210" />
            </Array>
          </mxGeometry>
        </mxCell>
        <mxCell id="uJuetPwyFt0daFba83CH-47" style="edgeStyle=orthogonalEdgeStyle;rounded=0;orthogonalLoop=1;jettySize=auto;html=1;entryX=0.5;entryY=0;entryDx=0;entryDy=0;" edge="1" parent="WIyWlLk6GJQsqaUBKTNV-1" source="uJuetPwyFt0daFba83CH-18" target="uJuetPwyFt0daFba83CH-46">
          <mxGeometry relative="1" as="geometry" />
        </mxCell>
        <mxCell id="uJuetPwyFt0daFba83CH-49" style="edgeStyle=orthogonalEdgeStyle;rounded=0;orthogonalLoop=1;jettySize=auto;html=1;entryX=0.5;entryY=0;entryDx=0;entryDy=0;" edge="1" parent="WIyWlLk6GJQsqaUBKTNV-1" source="uJuetPwyFt0daFba83CH-18" target="uJuetPwyFt0daFba83CH-48">
          <mxGeometry relative="1" as="geometry">
            <Array as="points">
              <mxPoint x="414" y="500" />
              <mxPoint x="380" y="500" />
            </Array>
          </mxGeometry>
        </mxCell>
        <mxCell id="uJuetPwyFt0daFba83CH-62" style="edgeStyle=orthogonalEdgeStyle;rounded=0;orthogonalLoop=1;jettySize=auto;html=1;exitX=0.75;exitY=1;exitDx=0;exitDy=0;entryX=0.5;entryY=0;entryDx=0;entryDy=0;" edge="1" parent="WIyWlLk6GJQsqaUBKTNV-1" source="uJuetPwyFt0daFba83CH-18" target="uJuetPwyFt0daFba83CH-50">
          <mxGeometry relative="1" as="geometry">
            <Array as="points">
              <mxPoint x="460" y="170" />
            </Array>
          </mxGeometry>
        </mxCell>
        <mxCell id="uJuetPwyFt0daFba83CH-18" value="UnityLevelRepresentation" style="rounded=0;whiteSpace=wrap;html=1;" vertex="1" parent="WIyWlLk6GJQsqaUBKTNV-1">
          <mxGeometry x="339" y="120" width="150" height="50" as="geometry" />
        </mxCell>
        <mxCell id="uJuetPwyFt0daFba83CH-54" style="edgeStyle=orthogonalEdgeStyle;rounded=0;orthogonalLoop=1;jettySize=auto;html=1;" edge="1" parent="WIyWlLk6GJQsqaUBKTNV-1" source="uJuetPwyFt0daFba83CH-19" target="uJuetPwyFt0daFba83CH-26">
          <mxGeometry relative="1" as="geometry" />
        </mxCell>
        <mxCell id="uJuetPwyFt0daFba83CH-60" style="edgeStyle=orthogonalEdgeStyle;rounded=0;orthogonalLoop=1;jettySize=auto;html=1;entryX=0.5;entryY=0;entryDx=0;entryDy=0;" edge="1" parent="WIyWlLk6GJQsqaUBKTNV-1" source="uJuetPwyFt0daFba83CH-19" target="uJuetPwyFt0daFba83CH-27">
          <mxGeometry relative="1" as="geometry">
            <Array as="points">
              <mxPoint x="200" y="500" />
              <mxPoint x="240" y="500" />
            </Array>
          </mxGeometry>
        </mxCell>
        <mxCell id="uJuetPwyFt0daFba83CH-19" value="UnityObstacle" style="rounded=0;whiteSpace=wrap;html=1;" vertex="1" parent="WIyWlLk6GJQsqaUBKTNV-1">
          <mxGeometry x="140" y="170" width="120" height="50" as="geometry" />
        </mxCell>
        <mxCell id="uJuetPwyFt0daFba83CH-23" value="GameCreatingCore" style="swimlane;whiteSpace=wrap;html=1;startSize=30;" vertex="1" parent="WIyWlLk6GJQsqaUBKTNV-1">
          <mxGeometry x="120" y="430" width="640" height="250" as="geometry" />
        </mxCell>
        <mxCell id="uJuetPwyFt0daFba83CH-26" value="WalkObstacleEffect" style="rounded=0;whiteSpace=wrap;html=1;" vertex="1" parent="uJuetPwyFt0daFba83CH-23">
          <mxGeometry x="20" y="172" width="120" height="50" as="geometry" />
        </mxCell>
        <mxCell id="uJuetPwyFt0daFba83CH-27" value="VisionObstacleEffect" style="rounded=0;whiteSpace=wrap;html=1;" vertex="1" parent="uJuetPwyFt0daFba83CH-23">
          <mxGeometry x="60" y="92" width="120" height="50" as="geometry" />
        </mxCell>
        <mxCell id="uJuetPwyFt0daFba83CH-30" style="edgeStyle=orthogonalEdgeStyle;rounded=0;orthogonalLoop=1;jettySize=auto;html=1;exitX=0.5;exitY=1;exitDx=0;exitDy=0;" edge="1" parent="uJuetPwyFt0daFba83CH-23" source="uJuetPwyFt0daFba83CH-26" target="uJuetPwyFt0daFba83CH-26">
          <mxGeometry relative="1" as="geometry" />
        </mxCell>
        <mxCell id="uJuetPwyFt0daFba83CH-36" value="&lt;div&gt;EnemySettings&lt;/div&gt;" style="rounded=0;whiteSpace=wrap;html=1;" vertex="1" parent="uJuetPwyFt0daFba83CH-23">
          <mxGeometry x="354" y="172" width="120" height="50" as="geometry" />
        </mxCell>
        <mxCell id="uJuetPwyFt0daFba83CH-35" value="&lt;div&gt;EnemyType&lt;/div&gt;" style="rounded=0;whiteSpace=wrap;html=1;" vertex="1" parent="uJuetPwyFt0daFba83CH-23">
          <mxGeometry x="385" y="90" width="110" height="50" as="geometry" />
        </mxCell>
        <mxCell id="uJuetPwyFt0daFba83CH-31" value="PlayerSettings" style="rounded=0;whiteSpace=wrap;html=1;" vertex="1" parent="uJuetPwyFt0daFba83CH-23">
          <mxGeometry x="500" y="172" width="120" height="50" as="geometry" />
        </mxCell>
        <mxCell id="uJuetPwyFt0daFba83CH-46" value="Enemy" style="rounded=0;whiteSpace=wrap;html=1;" vertex="1" parent="uJuetPwyFt0daFba83CH-23">
          <mxGeometry x="234" y="92" width="120" height="50" as="geometry" />
        </mxCell>
        <mxCell id="uJuetPwyFt0daFba83CH-48" value="LevelGoal" style="rounded=0;whiteSpace=wrap;html=1;" vertex="1" parent="uJuetPwyFt0daFba83CH-23">
          <mxGeometry x="200" y="172" width="120" height="50" as="geometry" />
        </mxCell>
        <mxCell id="uJuetPwyFt0daFba83CH-33" value="UnityViewconeDescription" style="rounded=0;whiteSpace=wrap;html=1;" vertex="1" parent="WIyWlLk6GJQsqaUBKTNV-1">
          <mxGeometry x="485" y="340" width="150" height="50" as="geometry" />
        </mxCell>
        <mxCell id="uJuetPwyFt0daFba83CH-44" style="edgeStyle=orthogonalEdgeStyle;rounded=0;orthogonalLoop=1;jettySize=auto;html=1;entryX=0.5;entryY=0;entryDx=0;entryDy=0;" edge="1" parent="WIyWlLk6GJQsqaUBKTNV-1" source="uJuetPwyFt0daFba83CH-42" target="uJuetPwyFt0daFba83CH-43">
          <mxGeometry relative="1" as="geometry" />
        </mxCell>
        <mxCell id="uJuetPwyFt0daFba83CH-42" value="&lt;div&gt;UnitySkillRepr&lt;/div&gt;" style="rounded=0;whiteSpace=wrap;html=1;" vertex="1" parent="WIyWlLk6GJQsqaUBKTNV-1">
          <mxGeometry x="230" y="250" width="120" height="50" as="geometry" />
        </mxCell>
        <mxCell id="uJuetPwyFt0daFba83CH-43" value="&lt;div&gt;SkillType&lt;/div&gt;" style="rounded=0;whiteSpace=wrap;html=1;" vertex="1" parent="WIyWlLk6GJQsqaUBKTNV-1">
          <mxGeometry x="230" y="340" width="120" height="50" as="geometry" />
        </mxCell>
        <mxCell id="uJuetPwyFt0daFba83CH-53" style="edgeStyle=orthogonalEdgeStyle;rounded=0;orthogonalLoop=1;jettySize=auto;html=1;entryX=1;entryY=0.5;entryDx=0;entryDy=0;" edge="1" parent="WIyWlLk6GJQsqaUBKTNV-1" source="uJuetPwyFt0daFba83CH-50" target="uJuetPwyFt0daFba83CH-42">
          <mxGeometry relative="1" as="geometry" />
        </mxCell>
        <mxCell id="uJuetPwyFt0daFba83CH-50" value="UnitySkillReprGrounded" style="rounded=0;whiteSpace=wrap;html=1;" vertex="1" parent="WIyWlLk6GJQsqaUBKTNV-1">
          <mxGeometry x="390" y="250" width="140" height="50" as="geometry" />
        </mxCell>
      </root>
    </mxGraphModel>
  </diagram>
</mxfile>
